<?xml version="1.0" encoding="utf-8"?>
<!-- Generator: Adobe Illustrator 26.0.1, SVG Export Plug-In . SVG Version: 6.00 Build 0)  -->
<svg version="1.1" id="Layer_1" xmlns="http://www.w3.org/2000/svg" xmlns:xlink="http://www.w3.org/1999/xlink" x="0px" y="0px"
	 viewBox="0 0 1000 458.8" style="enable-background:new 0 0 1000 458.8;" xml:space="preserve">
<style type="text/css">
	.st0{fill:#B3B3B3;}
	.st1{font-family:'Roboto-LightItalic';}
	.st2{font-size:13px;}
	.st3{fill:none;stroke:#000000;stroke-width:0.75;stroke-miterlimit:10;}
	.st4{font-family:'Roboto-Light';}
	.st5{font-size:14px;}
	.st6{enable-background:new    ;}
	.st7{fill:#F6A316;}
</style>
<g id="Background2">
	
		<image style="overflow:visible;enable-background:new    ;" width="2002" height="768" xlink:href="Modulo 3/clase-2/img/madagascar.png"  transform="matrix(0.5994 0 0 0.5994 -127.6467 1.0591)">
	</image>
</g>
<text transform="matrix(1 0 0 1 725.488 405.9608)" class="st0 st1 st2">OCEANO ÍNDICO</text>
<text transform="matrix(1 0 0 1 158.78 405)" class="st0 st1 st2">A</text>
<text transform="matrix(1 0 0 1 166.72 405)" class="st0 st1 st2">r</text>
<text transform="matrix(1 0 0 1 170.77 405)" class="st0 st1 st2">abian Sea</text>
<g>
	<path class="st3" d="M544.4,357c-0.1,3.2-0.8,25.3-15.9,43.1c-8.5,10.1-17.7,14.1-23.4,15.8"/>
	<path d="M506.2,415.6l1.9,1.8l-0.1,0.1l-3.9-0.5l-3.9,0c1.2-0.6,2.3-1.2,3.4-1.7l3.2-2.2l0.1,0.1L506.2,415.6z"/>
</g>
<text transform="matrix(1 0 0 1 459.95 202.6599)" class="st4 st5">MADAGASCAR</text>
<text transform="matrix(1 0 0 1 533.0073 331.4975)" class="st6"><tspan x="0" y="0" class="st4 st5">Lémur Cola </tspan><tspan x="0" y="16.8" class="st4 st5"> Anillada</tspan></text>
<text transform="matrix(1 0 0 1 98.6124 69.8733)" class="st4 st5">ÁFRICA</text>
<path id="XMLID_20_" class="st7" d="M439,350.9c4.2-0.7,8.5-0.7,12.8-0.6c1.2,0,2.4,0.2,3.6,0.2c1.4,0,2.5,0.4,3.3,1.6
	c0.8,1.4,2.1,2.4,3.3,3.4c1.5,1.2,2.4,2.9,3.2,4.6c-0.1,0.2-0.2,0.4-0.2,0.6c-0.1,0.8-0.1,1.3,0.4,1.2c0.1,0.9,0,1.8-0.5,2.6
	c-0.2,0.4-0.2,0.9-0.2,1.3c0.1,1.8-0.4,3.4-0.8,5.1c-0.5,2.3-1.4,4.5-0.9,7c0.3,1.6,0.7,3.1,2.4,3.8c1.3,0.5,1.5,1.8,2,2.8
	c-2,0.8-4,1.7-5.7,3c-2.2-0.3-4.2,0.2-5.7,2.1c-0.3-0.8-0.3-0.5-0.4,0.6c-1.7,2.2-2.6,4.8-3.2,7.6c-0.1,0.7-0.4,1.2-0.7,1.8
	c-0.2,0-0.5,0-0.7,0.3c-0.1,0.2,0.1,0.2,0.3,0.2c-0.8,2.5-2.1,4.9-3.2,7.3c-1.1,2.5-0.8,3.7,1.5,5.2c1.3,0.9,2.7,1.7,3.7,3.1
	c1.2,1.6,3.7,1.8,5.1,0.3c1.6-1.7,3.7-1.7,5.5-2.4c1.1-0.5,2.3-0.3,3.4-0.5c1-0.2,2-0.6,2.8-1.5c0.5-0.6,1.1-1.2,1.8-1.7
	c1.9-1.5,5.1-0.6,5.9,1.8c0.3,0.7,0.5,1.5,0.7,2.2c0.2,0.5,0.3,1.1,0.8,1.3c1.1,0.6,1.7,1.6,2,2.6c0.5,2.4,2.1,4.1,3.4,6
	c0.6,0.9,1.1,1.9,1.3,3c0,0.1,0,0.2,0,0.3c-0.1,0.1-0.3,0.1-0.4,0.2c-0.3,0.2-0.7,0.1-0.9,0.5l0,0c-0.9,0.3-1.5,1-2.4,1.3l0,0
	c-0.9-0.3-1.9-0.9-2.8-0.8c-1,0.1-2.1,0.3-3.1,0.7c-0.1,0.1-0.2,0.2-0.3,0.3l0,0c-0.4,0-0.8,0-1.1,0.5l0,0c-0.8,0.1-1.6,0.1-2.1,0.9
	c-0.3,0.1-0.6,0.2-0.9,0.3c-0.2,0-0.4,0-0.5,0.2l0,0c-0.2,0-0.4,0-0.4,0.2l0,0c-0.2,0-0.5,0-0.6,0.2l0,0c-0.1,0.1-0.2,0.1-0.2,0.2
	l0,0c-0.2,0-0.4,0-0.4,0.2l0,0c-0.2,0-0.4,0-0.4,0.3c-1.4,0.8-2.4,2.2-3.9,2.9c-0.5,0.1-1.1,0.2-1.5,0.6l0,0c-2.1-0.1-4.1,0-6.2,0.5
	l0,0c-0.1-0.3,0.1-0.8-0.4-0.9c-0.7-0.7-1.8-0.7-2.6-1.3c-0.1-0.1-0.1-0.2-0.2-0.3l0,0c0-0.4,0.1-0.8-0.4-0.9l0,0
	c-0.1-0.1-0.1-0.2-0.2-0.2l0,0c-0.1-0.1-0.2-0.2-0.2-0.2l0,0c-0.2-0.4-0.5-0.5-0.9-0.5l0,0c-0.1-0.2-0.3-0.2-0.4-0.2l0,0
	c-0.1-0.2-0.3-0.2-0.4-0.2l0,0c-0.1-0.2-0.3-0.2-0.4-0.2l0,0c-0.4-0.4-0.9-0.4-1.4-0.5c-1.9-0.4-4.1,0.1-5.6-1.7
	c-0.8-1.2-1.7-2.1-3.3-2.3c-0.9-0.1-1.4-1-1.6-2c-0.2-1-0.3-1.9-1.1-2.6c-0.7-0.7-0.7-1.6-0.4-2.6c0-0.6,0-1.2-0.7-1.5l0,0
	c0-0.3-0.2-0.5-0.4-0.5l0,0c0-0.2,0-0.4-0.2-0.5l0,0c-0.1-0.1-0.1-0.2-0.2-0.2l0,0c0-0.3-0.1-0.5-0.4-0.5l0,0
	c-0.1-0.2-0.3-0.2-0.4-0.2l0,0c-0.1-0.2-0.2-0.2-0.4-0.2l0,0c-0.1-0.1-0.2-0.2-0.2-0.2l0,0c-0.1-0.1-0.1-0.2-0.2-0.2l0,0
	c-0.1-0.1-0.1-0.2-0.2-0.2l0,0c-0.1-0.1-0.1-0.2-0.2-0.2l0,0c0-0.2,0-0.4-0.2-0.5l0,0c-0.4-2-0.2-3.9-0.2-5.9c0-0.4,0.2-0.9-0.4-1
	c0-1.3,0.1-2.6-0.3-3.9c0.4-0.6,0.2-1.2,0.2-1.8c0-0.5,0-1,0.5-1.1c1.1-0.2,1.4-0.9,1.2-2c0-0.5,0.2-1.1-0.4-1.3
	c0-0.5-0.3-0.8-0.8-0.9l0,0c-0.1-0.1-0.1-0.2-0.2-0.2l0,0c-0.5-0.4-0.7-0.9-0.6-1.6c0.1-1.1-0.1-2.2-0.4-3.3c-0.5-0.9-1.7-1.1-2.2-2
	c0-0.3-0.1-0.5-0.4-0.6l0,0c0-0.3,0-0.7-0.4-0.7l0,0c-0.1-0.1-0.1-0.2-0.2-0.2l0,0c0-0.2-0.1-0.4-0.2-0.5l0,0
	c-0.1-0.1-0.1-0.2-0.2-0.2l0,0c0-0.2,0-0.4-0.2-0.5l0,0c-0.1-1.5-0.3-3-1.2-4.2c0.4-1.4-0.5-2.6-0.6-4c0-0.5-0.2-1.1-0.3-1.7
	c0.3-0.1,0.3-1.1,0.8-0.3c0.2,0.3,0.4,0,0.5-0.1c0.3-0.5,0.1-1.3-0.2-1.4c-1.2-0.5-0.6-1.6-0.9-2.4l0,0c0.4-0.7,0.9-1.4,1.4-2
	c0.1-0.1,0.3-0.4,0.2-0.5c-0.4-0.9,0.1-1.8,0-2.7l0,0c0.2,0,0.3,0,0.4-0.2l0,0c0.1-0.1,0.1-0.2,0.2-0.2l0,0c0.2-0.1,0.2-0.3,0.2-0.5
	l0,0c0.1-0.1,0.1-0.2,0.2-0.2l0,0c0.4-0.5,0.8,0.2,1.2,0.1c-0.2-0.3-0.3-0.6-0.4-0.9l0,0c0.4-0.2,0.4-0.6,0.3-1
	c0.1-0.1,0.1-0.1,0.2-0.2l0,0c1.2,0.1,2.3-0.4,3.4-0.5c0.1,0.2,0.3,0.3,0.4,0.3c0.2-0.1,0-0.3-0.1-0.4c0.6-0.8,1.2-1.7,0.9-2.8
	c-0.1-0.6-0.5-1.1-0.7-1.6c0.9-0.4,1-1.3,1.4-2c0.5-0.8,0.9-1.5,0.6-2.5c0-0.5,0.1-1,0.1-1.6c0.5-0.1,0.3-0.6,0.3-0.9l0,0
	c0.4-0.4,0.7-0.8,0.6-1.4l0,0C438.6,350.9,438.8,350.9,439,350.9z"/>
</svg>
